# xmcd
#
# Track frame offsets:
#	150
#	11150
#	23372
#	33982
#	47167
#	57190
#	69640
#	79487
#	93555
#	103747
#	114470
#	125027
#	138755
#	148137
#	158650
#	169900
#	181520
#	192155
#	204567
#	214550
#
# Disc length: 3020 seconds
#
# Revision: 0
# Processed by: cddbd v1.5.1PL0 Copyright (c) Steve Scherf et al.
# Submitted via: EasyCDDAExtractor 8.0.1.1
#
DISCID=160bca14
DTITLE=John Gary - The Oner and Only/A Warm and Tender Glow
DYEAR=2004
DGENRE=Acid
TTITLE0=The Song From Moulin Rouge (Where Is Your Heart)
TTITLE1=Scarlet Ribbons
TTITLE2=Warm And Willing
TTITLE3=Bumble Bee
TTITLE4=There Goes My Heart
TTITLE5=A Quiet Thing
TTITLE6=It Had Better Be Tonight
TTITLE7=Joy In The Morning
TTITLE8=Forget It
TTITLE9=Once Upon A Summer Afternoon
TTITLE10=I'm Yours
TTITLE11=That Warm And Tender Glow
TTITLE12=Linger Awhile
TTITLE13=Hang On To Me
TTITLE14=Give Me This Moment
TTITLE15=The Bell Rings
TTITLE16=Soon I'll Wed My Love
TTITLE17=Mine (Come Strasera Mai)
TTITLE18=Live Young
TTITLE19=Don't Throw The Roses Away
EXTD=
EXTT0=
EXTT1=
EXTT2=
EXTT3=
EXTT4=
EXTT5=
EXTT6=
EXTT7=
EXTT8=
EXTT9=
EXTT10=
EXTT11=
EXTT12=
EXTT13=
EXTT14=
EXTT15=
EXTT16=
EXTT17=
EXTT18=
EXTT19=
PLAYORDER=
